<svg id="Calque_1" data-name="Calque 1" xmlns="http://www.w3.org/2000/svg" viewBox="0 0 2220.62 1517.26"><defs>    <style>
      .cls-1 { fill: #01579B; } /* Change yellow to blue */
      .cls-2 { fill: #01579B; } /* Keep the original blue color */
      .cls-16, .cls-3 { opacity: 0.15; }
      .cls-16, .cls-25, .cls-4 { fill: #fff; }
    

      .cls-5 { fill: #f9d41a; } /* Change green to #80D8FF */




      .cls-6 { opacity: 0.5; }
      .cls-7 { fill: #0272cb; }
      .cls-8 { fill: #eb7e00; }
      .cls-9 { fill: #7f4d40; }
      .cls-10 { fill: #0272cb; }
      .cls-10, .cls-21, .cls-22 { opacity: 0.1; }
      .cls-11 { fill: #00c7c7; }
      .cls-12 { fill: #01579B; }
      .cls-13 { fill: #0272cb; }
      .cls-14, .cls-17, .cls-18 { fill: #27878a; }
      .cls-15, .cls-18, .cls-24, .cls-25 { opacity: 0.2; }
      .cls-17, .cls-23 { opacity: 0.4; }
      .cls-19 { opacity: 0.6; }
      .cls-20 { opacity: 0.8; }
      .cls-26 { opacity: 0.3; }
    </style></defs><path class="cls-1" d="M1579.25,1148.54c-38.66-112.77-67.42-198.8-149.8-254C1357,846,1266.94,836.78,1260.3,836.16c-18.82-1.75-48.64-1.75-108.27-1.75s-89.59,0-108.27,1.75c-6.5.62-93.6,9.69-168.3,58.35-85.94,56-119.37,141.21-163.31,252-42.8,107.92-67.4,168.19-48.07,239.5,16.1,59.4,49.38,66.42,101.29,118.48,123.3,0,648.19-6.87,747.06-6.87,51.67-63,88.29-64.93,101.59-116.36C1633.38,1306.39,1612,1244.17,1579.25,1148.54Z"/><path class="cls-2" d="M1579.25,1148.54c-38.66-112.77-67.42-198.8-149.8-254C1357,846,1266.94,836.78,1260.3,836.16c-18.82-1.75-48.64-1.75-108.27-1.75s-89.59,0-108.27,1.75c-6.5.62-93.6,9.69-168.3,58.35-85.94,56-119.37,141.21-163.31,252-42.8,107.92-67.4,168.19-48.07,239.5,16.1,59.4,101.29,118.48,101.29,118.48l747.06-6.87s88.29-64.93,101.59-116.36C1633.38,1306.39,1612,1244.17,1579.25,1148.54Z"/><g class="cls-3"><path class="cls-2" d="M1362.71,1072.28l57.82,313c-5.55-9.73-11.89-21.59-18.34-35.29C1349.56,1238.08,1335.79,1100.86,1362.71,1072.28Z"/></g><g class="cls-3"><path class="cls-2" d="M921.85,1072.56,857.24,1385c5.76-9.7,12.36-21.5,19.1-35.16C931.42,1238.35,948.16,1101.3,921.85,1072.56Z"/></g><path class="cls-4" d="M1273.82,885.77c1.51,34.82-62.47,71.35-119,71.75-57.75.4-122.81-36.79-121.3-71.75,1.48-34.36,67.12-62.41,120.15-62.41S1272.32,851.23,1273.82,885.77Z"/><path class="cls-5" d="M1294.77,615.75c-4.49-.48-9,3.41-13,10.21.81-15.37,1.24-61.47-30-104.48-10.67-14.71-41.56-57.3-93-59.62-50.6-2.28-84.87,36.06-95.17,47.59-40.74,45.59-39.11,101.5-38.35,114.86-3-4.21-7.45-9-11.95-8.56-10.07,1.07-15.93,23.61-13.1,50.36s13.3,47.55,23.37,46.49c2.3-.25,4.37-1.67,6.18-4,17,70.16,65.9,120.87,123.62,120.87,58.07,0,107.24-51.32,123.94-122.14,2,3.06,4.4,4.94,7.11,5.23,10.07,1.06,20.53-19.75,23.37-46.49S1304.84,616.82,1294.77,615.75Z"/><rect class="cls-5" x="1081.44" y="690.55" width="144.44" height="242.22" rx="43.05"/><g class="cls-6"><path class="cls-7" d="M1225.88,799.81c1.29,3.42-31.32,27.5-72,27.75-40.48.25-73.23-23.16-72-26.59,1.09-3.05,28.46,11,72,10.69S1224.74,796.78,1225.88,799.81Z"/></g><path class="cls-8" d="M1163.24,554c-24.69,29.09-47,43.56-51.66,46.5a183.12,183.12,0,0,1-43.53,20.12c7.72-27.31,15.49-38.07,21.74-42.35l2.07-1.41c3.69-2.52,11.59-8,21.2-15.34,4.66-3.56,9.85-7.69,15.6-12.56,7.69-6.51,13.08-12,23.92-23,30.32-30.61,31.51-36.69,42.08-38.83,20.93-4.23,41.79,14.47,46,18.28,12,10.8,16.58,22.47,20.62,33.19,9.31,24.68,8.36,49,8,57.46-.14,3.68-.75,15.08-.48,30.94.07,3.87.17,7,.24,9a364.36,364.36,0,0,1-17.72-61c-2.25-11.5-2.41-15.83-5.63-23.53-7.9-18.91-27.29-42-44.94-39.86C1188.34,513.2,1187.52,525.43,1163.24,554Z"/><path class="cls-9" d="M1329.09,532.58l.1.6a5.66,5.66,0,0,0-.28-1.13l-.19-.48-.38-1-.79-1.89c-.56-1.25-1.12-2.5-1.71-3.72-1.19-2.46-2.48-4.85-3.8-7.22a146.14,146.14,0,0,0-8.86-13.65,159.55,159.55,0,0,0-21.69-24.17,182.78,182.78,0,0,0-25.91-19.59,41.63,41.63,0,0,0-7.51-3.79,35.83,35.83,0,0,0-8.22-2.16,41.35,41.35,0,0,0-9.3-.23c-2.11-.34-4.07-.58-5.81-.73-3-9.06-12.94-15.1-23.13-17.07a69.49,69.49,0,0,0-18.9-.63,148.73,148.73,0,0,0-36.46-6.73,137.11,137.11,0,0,0-21,.07A70.89,70.89,0,0,0,1114.7,434a58.87,58.87,0,0,0-18,11.26c-5.24,4.88-9.28,10.65-13.41,16.1a135.93,135.93,0,0,1-14.93,17.18q-12.67,9.9-23.33,18.18a262,262,0,0,1-26,13.87c-12.38,6-25.18,11.62-36.5,19.92A78.85,78.85,0,0,0,967.4,545a77.38,77.38,0,0,0-5.85,8.74c-.83,1.53-1.74,3-2.44,4.64L958,560.76l-.28.59-.3.76c-.19.51-.37,1-.53,1.54l.08-.42a34.84,34.84,0,0,0-1.63,6.78l-.43,3.47c-.08,1.16,0,2.33-.06,3.49a40.34,40.34,0,0,0,2.87,13.55,120.67,120.67,0,0,0,5.39,11.42c1.33,9.63,3.8,17.8,5,25.86,0,.09,0,.18,0,.26-.65,2-1.66,4.1-2.47,6.22s-1.59,4.26-2.32,6.4c-1.44,4.3-2.84,8.58-4,13a38.13,38.13,0,0,0-1.25,6.8,16.6,16.6,0,0,0,4.57,13,48.43,48.43,0,0,0,5.17,4.57,34.52,34.52,0,0,0,5.87,3.66c1,.51,2.13,1,3.21,1.38,3,3.24,5.81,5.63,12.12,12.77a23.66,23.66,0,0,0-.28,2.81,21.26,21.26,0,0,0,.93,6.88c1.32,4.53,4.31,8.22,7.31,11.58s6.29,6.54,9.6,9.62a202.28,202.28,0,0,0,21.12,17.07l7.41,5.56a57.36,57.36,0,0,1-4.37-12c-7.77-32.67,15.26-67.2,39.26-103.21h0a281,281,0,0,1,23.12-31.7h0c19.55-23.53,28.87-28.43,60.9-59.95,28.85-28.4,25-43.38,40.26-46.83,19.22-4.36,43.25,8.68,54.12,23.84,5.62,7.83,8.08,16.6,10.5,25.31a136.46,136.46,0,0,1,4.4,28,121.83,121.83,0,0,1,.31,17.49c-.61,9.73-2.16,13.19-3.43,21.73-1.22,8.19-2.73,18.33-.41,29.27,3.55,16.72,15,30.57,17.61,29.44,1.17-.51.47-4,.12-7.26-2.22-20.57,8.44-46,16-46.16,6.79-.12,14,20.07,14.3,36.64.11,7.26.32,21-8.49,31.89-6.86,8.46-15.21,10.27-21.7,21.64a97.18,97.18,0,0,0-5.16,10.81,112.36,112.36,0,0,0-3.73,11.7c-1.16,4-2.89,10-5.13,17.46,7-6.64,10-9.21,10.8-9.65l.13-.07c.85-.49,1.62-1,2.39-1.55,3.05-2.13,6-4.34,8.9-6.53q8.81-6.57,17.69-13c3-2.17,5.94-4.28,8.85-6.65a58.81,58.81,0,0,0,7.82-8.06,56.23,56.23,0,0,0,6.58-9.14,33.21,33.21,0,0,0,2.36-5.23,42.12,42.12,0,0,0,1.42-5.6,30.55,30.55,0,0,0-.63-11.48,69.71,69.71,0,0,0-3.67-10.6l0-.09c.26-5.43.09-12.27-.05-23.83-.1-8,.14-14,.51-18.85a70.29,70.29,0,0,0,3.45-8l1-2.61c.32-.88.55-1.79.82-2.68.49-1.8,1.16-3.56,1.5-5.39a98.42,98.42,0,0,0,2.67-22.13A135.76,135.76,0,0,0,1329.09,532.58Z"/><path class="cls-10" d="M1329.09,532.58l.1.6a5.66,5.66,0,0,0-.28-1.13l-.19-.48-.38-1-.79-1.89c-.56-1.25-1.12-2.5-1.71-3.72-1.19-2.46-2.48-4.85-3.8-7.22a146.14,146.14,0,0,0-8.86-13.65,159.55,159.55,0,0,0-21.69-24.17,182.78,182.78,0,0,0-25.91-19.59,41.63,41.63,0,0,0-7.51-3.79,35.83,35.83,0,0,0-8.22-2.16,41.35,41.35,0,0,0-9.3-.23c-2.11-.34-4.07-.58-5.81-.73-3-9.06-12.94-15.1-23.13-17.07a69.49,69.49,0,0,0-18.9-.63,148.73,148.73,0,0,0-36.46-6.73,137.11,137.11,0,0,0-21,.07A70.89,70.89,0,0,0,1114.7,434a58.87,58.87,0,0,0-18,11.26c-5.24,4.88-9.28,10.65-13.41,16.1a135.93,135.93,0,0,1-14.93,17.18q-12.67,9.9-23.33,18.18a262,262,0,0,1-26,13.87c-12.38,6-25.18,11.62-36.5,19.92A78.85,78.85,0,0,0,967.4,545a77.38,77.38,0,0,0-5.85,8.74c-.83,1.53-1.74,3-2.44,4.64L958,560.76l-.28.59-.3.76c-.19.51-.37,1-.53,1.54l.08-.42a34.84,34.84,0,0,0-1.63,6.78l-.43,3.47c-.08,1.16,0,2.33-.06,3.49a40.34,40.34,0,0,0,2.87,13.55,120.67,120.67,0,0,0,5.39,11.42c1.33,9.63,3.8,17.8,5,25.86,0,.09,0,.18,0,.26-.65,2-1.66,4.1-2.47,6.22s-1.59,4.26-2.32,6.4c-1.44,4.3-2.84,8.58-4,13a38.13,38.13,0,0,0-1.25,6.8,16.6,16.6,0,0,0,4.57,13,48.43,48.43,0,0,0,5.17,4.57,34.52,34.52,0,0,0,5.87,3.66c1,.51,2.13,1,3.21,1.38,3,3.24,5.81,5.63,12.12,12.77a23.66,23.66,0,0,0-.28,2.81,21.26,21.26,0,0,0,.93,6.88c1.32,4.53,4.31,8.22,7.31,11.58s6.29,6.54,9.6,9.62a202.28,202.28,0,0,0,21.12,17.07l7.41,5.56a57.36,57.36,0,0,1-4.37-12c-7.77-32.67,15.26-67.2,39.26-103.21h0a281,281,0,0,1,23.12-31.7h0c19.55-23.53,28.87-28.43,60.9-59.95,28.85-28.4,25-43.38,40.26-46.83,19.22-4.36,43.25,8.68,54.12,23.84,5.62,7.83,8.08,16.6,10.5,25.31a136.46,136.46,0,0,1,4.4,28,121.83,121.83,0,0,1,.31,17.49c-.61,9.73-2.16,13.19-3.43,21.73-1.22,8.19-2.73,18.33-.41,29.27,3.55,16.72,15,30.57,17.61,29.44,1.17-.51.47-4,.12-7.26-2.22-20.57,8.44-46,16-46.16,6.79-.12,14,20.07,14.3,36.64.11,7.26.32,21-8.49,31.89-6.86,8.46-15.21,10.27-21.7,21.64a97.18,97.18,0,0,0-5.16,10.81,112.36,112.36,0,0,0-3.73,11.7c-1.16,4-2.89,10-5.13,17.46,7-6.64,10-9.21,10.8-9.65l.13-.07c.85-.49,1.62-1,2.39-1.55,3.05-2.13,6-4.34,8.9-6.53q8.81-6.57,17.69-13c3-2.17,5.94-4.28,8.85-6.65a58.81,58.81,0,0,0,7.82-8.06,56.23,56.23,0,0,0,6.58-9.14,33.21,33.21,0,0,0,2.36-5.23,42.12,42.12,0,0,0,1.42-5.6,30.55,30.55,0,0,0-.63-11.48,69.71,69.71,0,0,0-3.67-10.6l0-.09c.26-5.43.09-12.27-.05-23.83-.1-8,.14-14,.51-18.85a70.29,70.29,0,0,0,3.45-8l1-2.61c.32-.88.55-1.79.82-2.68.49-1.8,1.16-3.56,1.5-5.39a98.42,98.42,0,0,0,2.67-22.13A135.76,135.76,0,0,0,1329.09,532.58Z"/><polygon class="cls-11" points="1600.06 1014.28 988.18 1014.28 988.18 1440.93 835.23 1440.93 835.23 1468.94 1586.32 1468.94 1586.32 1441.35 1600.06 1441.35 1600.06 1014.28"/><polygon class="cls-12" points="1600.06 1014.62 988.18 1014.62 988.18 1440.94 835.22 1440.94 835.22 1469.14 1586.31 1469.14 1586.31 1441.27 1600.06 1441.27 1600.06 1014.62"/><rect class="cls-12" x="1011.66" y="1027.8" width="589.4" height="441.15"/><g class="cls-3"><rect class="cls-2" x="1011.63" y="1027.8" width="589.4" height="441.15"/></g><ellipse class="cls-4" cx="1305.36" cy="1248.37" rx="42.69" ry="45.28"/><path class="cls-13" d="M1750,1468.44l.2-547.72a.44.44,0,0,1,.43-.46l101.87,0a.45.45,0,0,1,.43.46l-.2,547.73a.44.44,0,0,1-.43.45l-101.87,0A.45.45,0,0,1,1750,1468.44Z"/><path class="cls-2" d="M1801.4,1442.65c-14.29,0-25.87-12.55-25.86-28s11.59-28,25.88-28,25.86,12.55,25.86,28S1815.68,1442.66,1801.4,1442.65Z"/><path class="cls-4" d="M1775,1178.17l.09-244a.64.64,0,0,1,.61-.67l51.73,0a.65.65,0,0,1,.62.67l-.09,244a.64.64,0,0,1-.61.67l-51.74,0A.65.65,0,0,1,1775,1178.17Z"/><rect class="cls-2" x="1758.67" y="1009.62" width="107.85" height="5.8" transform="translate(2825.77 -799.72) rotate(90.02)"/><rect class="cls-2" x="1765.85" y="1008.18" width="49.31" height="5.8" transform="translate(2802.22 -779.06) rotate(90.02)"/><rect class="cls-2" x="1747.34" y="1087.55" width="86.28" height="5.8" transform="translate(2881.56 -699.64) rotate(90.02)"/><rect class="cls-2" x="1781.04" y="1108.39" width="63.04" height="5.8" transform="translate(2924.5 -700.88) rotate(90.02)"/><path class="cls-14" d="M1852.77,1468.44l.19-547.72a.44.44,0,0,1,.43-.46l101.87,0a.45.45,0,0,1,.43.46l-.2,547.73a.44.44,0,0,1-.42.45l-101.88,0A.44.44,0,0,1,1852.77,1468.44Z"/><ellipse class="cls-2" cx="1908.48" cy="1414.07" rx="25.87" ry="28.01"/><path class="cls-4" d="M1884.25,1176.36l.09-244.06a.64.64,0,0,1,.64-.64l51.68,0a.65.65,0,0,1,.65.64l-.09,244.06a.63.63,0,0,1-.64.64l-51.69,0A.64.64,0,0,1,1884.25,1176.36Z"/><rect class="cls-2" x="1863.07" y="1009.18" width="107.85" height="5.8" transform="translate(2929.76 -904.56) rotate(90.02)"/><rect class="cls-2" x="1878.33" y="999.66" width="33.15" height="5.8" transform="matrix(0, 1, -1, 0, 2898.14, -891.99)"/><rect class="cls-2" x="1878.31" y="1059.84" width="33.15" height="5.8" transform="translate(2958.31 -831.75) rotate(90.02)"/><rect class="cls-2" x="1878.28" y="1118.05" width="33.15" height="5.8" transform="translate(3016.5 -773.5) rotate(90.02)"/><rect class="cls-2" x="1875.32" y="1118.06" width="83.27" height="5.8" transform="translate(3038.61 -795.59) rotate(90.02)"/><path class="cls-12" d="M1955.31,1468.44l.2-547.72a.44.44,0,0,1,.43-.46l101.87,0a.45.45,0,0,1,.43.46l-.2,547.73a.44.44,0,0,1-.43.45l-101.87,0A.45.45,0,0,1,1955.31,1468.44Z"/><path class="cls-2" d="M2006.15,1442.08c-14.28,0-25.86-12.55-25.86-28s11.6-28,25.88-28,25.87,12.55,25.87,28S2020.44,1442.08,2006.15,1442.08Z"/><path class="cls-4" d="M1979.77,1177.59l.09-244a.64.64,0,0,1,.61-.66l51.73,0a.65.65,0,0,1,.62.67l-.09,244a.64.64,0,0,1-.61.66l-51.74,0A.65.65,0,0,1,1979.77,1177.59Z"/><rect class="cls-2" x="1959.54" y="994.92" width="107.85" height="5.8" transform="translate(3012.01 -1015.29) rotate(90.02)"/><rect class="cls-2" x="1937.43" y="1022.75" width="107.85" height="5.8" transform="translate(3017.72 -965.34) rotate(90.02)"/><rect class="cls-2" x="1981.91" y="1093.69" width="63.04" height="5.8" transform="translate(3110.74 -916.45) rotate(90.02)"/><g class="cls-15"><path d="M593.75,1222c-7.12,9.86-18.28,9.67-24.38,17.4-4.74,6-6.25,16.84,12.69,37.85-37.06-26.56-40.82-37.1-36.64-41.7,2.17-2.4,5.55-2.32,13.49-5,2.15-.73,28.81-10.14,30.78-22.34,2.32-14.42-30.85-26.45-26.78-36.61,1.87-4.67,10.3-3.43,12.26-8.89,2.29-6.34-8-10.52-8.62-20.8-.62-9.74,7.84-17.69,8.62-17.37s-7.52,9.49-4.64,19.26c3.24,11,18.12,13.9,16.9,20.53-.83,4.53-8,4.25-9.35,9.1-1.85,6.64,10.41,10.52,16.25,22.92C595.43,1198.65,601.55,1211.2,593.75,1222Z"/></g><g class="cls-15"><path d="M559.25,1164.52c-7.12,9.86-18.29,9.67-24.39,17.4-4.74,6-6.25,16.85,12.69,37.85-37.06-26.56-40.81-37.1-36.64-41.7,2.18-2.4,5.56-2.32,13.5-5,2.14-.73,28.81-10.14,30.77-22.34,2.32-14.42-30.84-26.45-26.77-36.61,1.87-4.67,10.29-3.43,12.26-8.89,2.28-6.34-8-10.52-8.63-20.8-.62-9.74,7.84-17.69,8.63-17.37s-7.52,9.49-4.65,19.26c3.24,11,18.13,13.91,16.91,20.53-.84,4.53-8,4.25-9.36,9.1-1.85,6.64,10.41,10.52,16.26,22.92C560.93,1141.17,567,1153.72,559.25,1164.52Z"/></g><path class="cls-13" d="M494.74,1287.12v20.1c-28.4-4.06-51.72,18-51.56,40.31.16,22.11,23.43,43.75,51.6,39.66v17.31a77.55,77.55,0,0,0,7.22,29.15c9.11,19.48,24.08,30.57,31.42,35.31H595c7.34-4.79,22.19-15.9,31.25-35.33a77.78,77.78,0,0,0,7.2-29.18l0-117.33Zm-31.47,60.41c0-11.44,13.74-24.49,31.48-22l0,44.17C477,1372.17,463.24,1359,463.27,1347.53Z"/><path class="cls-4" d="M628.33,1428.72l-128.39.1c-.35-.9-.69-1.82-1-2.78q-1-3-1.72-5.7l133.86-.1c-.4,1.54-.87,3.16-1.42,4.84C629.22,1426.35,628.78,1427.57,628.33,1428.72Z"/><path class="cls-4" d="M615.92,1450.16H512.36c-.75-.92-1.5-1.89-2.25-2.92-1.35-1.81-2.54-3.59-3.61-5.31l115.4-.23q-1.83,2.91-4.08,6C617.19,1448.53,616.55,1449.36,615.92,1450.16Z"/><path class="cls-16" d="M520.8,1287.06v172.11c1.28,1.19,2.66,2.41,4.16,3.64,1,.83,2,1.61,3,2.34s1.69,1.24,2.31,1.68c1.26.89,2,1.37,2.21,1.51l1,.62H557.9v-181.9Z"/><rect class="cls-14" x="781.23" y="61.22" width="42.21" height="229.25"/><path class="cls-17" d="M780.9,108.18q.2,5.38.2,11V290.48H738.89V119.14q0-5.58.2-11Z"/><rect class="cls-14" x="696.67" y="163.5" width="42.21" height="126.97"/><rect class="cls-18" x="654.55" y="30.01" width="42.21" height="260.46"/><rect class="cls-17" x="612.33" y="126.22" width="42.21" height="164.25"/><g class="cls-19"><path class="cls-14" d="M343,448.46H214c-26.84,0-48.8,20.8-48.8,46.23h0c0,25.43,22,46.23,48.8,46.23H313.1l32.63,36.8.13-.15V540.84c25.52-1.42,45.94-21.63,45.94-46.15h0C391.8,469.26,369.84,448.46,343,448.46Z"/><circle class="cls-4" cx="333.81" cy="495.86" r="11.61" transform="translate(-252.86 381.28) rotate(-45)"/><circle class="cls-4" cx="278.48" cy="495.86" r="11.61" transform="translate(-269.06 342.15) rotate(-45)"/><circle class="cls-4" cx="223.14" cy="495.86" r="11.61" transform="translate(-285.27 303.02) rotate(-45)"/></g><g class="cls-20"><path class="cls-14" d="M1655.48,543h0c0,46.21,38.48,84.31,86.59,87v69.24l.24.28,61.49-69.36h186.85c50.58,0,92-39.21,92-87.13h0c0-47.92-41.39-87.13-92-87.13h-243.2C1696.87,455.91,1655.48,495.12,1655.48,543Z"/><path class="cls-4" d="M1728.71,499.92h280.68a12.24,12.24,0,1,1,0,24.47H1728.71a12.24,12.24,0,1,1,0-24.47Z"/><path class="cls-4" d="M1728.71,553.25h280.68a12.24,12.24,0,1,1,0,24.47H1728.71a12.24,12.24,0,1,1,0-24.47Z"/></g><rect class="cls-14" x="1203.34" width="240.54" height="148.36"/><path class="cls-4" d="M1443.88,0h-4.81L1322.5,74.15,1209.8,0h-6.46l77.27,60.88-77.27,87.48,6.87,0,75.06-83.83L1322.69,94l40.42-31.36,74,85.69h6.79q-38-44.65-76.07-89.33Z"/><path class="cls-11" d="M258.69,1301.42c-13.14-33.66-18.36-68.07-15.51-102.28s12.92-58,22.67-80.94c7.4-17.45,14.39-33.94,18.56-54.87,8.86-44.49.3-90.74-25.44-137.47L267.9,921c26.92,48.88,35.84,97.46,26.49,144.37-4.37,22-11.89,39.7-19.17,56.85-9.87,23.28-19.19,45.26-21.89,77.81s2.28,65.54,14.85,97.74Z"/><g class="cls-21"><path d="M258.69,1301.42c-13.14-33.66-18.36-68.07-15.51-102.28s12.92-58,22.67-80.94c7.4-17.45,14.39-33.94,18.56-54.87,8.86-44.49.3-90.74-25.44-137.47L267.9,921c26.92,48.88,35.84,97.46,26.49,144.37-4.37,22-11.89,39.7-19.17,56.85-9.87,23.28-19.19,45.26-21.89,77.81s2.28,65.54,14.85,97.74Z"/></g><path class="cls-11" d="M292.93,1014.21a143.48,143.48,0,0,1,6.66-27.16s11.52-32.73,38.61-58.91c51.14-49.42,176.16-51.41,183.45-26.74,7,23.53-93.21,71.29-103.23,76A426.74,426.74,0,0,1,292.93,1014.21Z"/><path class="cls-22" d="M292.93,1014.21a143.48,143.48,0,0,1,6.66-27.16s11.52-32.73,38.61-58.91c51.14-49.42,176.16-51.41,183.45-26.74,7,23.53-93.21,71.29-103.23,76A426.74,426.74,0,0,1,292.93,1014.21Z"/><path class="cls-14" d="M278.52,1097.35a200.88,200.88,0,0,0-7.18-28.61s-11.18-33.79-31.94-60.18c-39.94-50.77-152.35-73.89-164.38-51-9.92,18.88,47.79,70.1,89.75,96.64C208.26,1081.71,250.46,1092.56,278.52,1097.35Z"/><path class="cls-14" d="M257.86,1160c13.11-42.13,36.29-62.88,47.89-71.6,62.13-46.72,165.64-29.29,169.1-10.47a2.78,2.78,0,0,1,.07.54c1.37,21.78-103.73,53.44-119.21,58A953.18,953.18,0,0,1,257.86,1160Z"/><path class="cls-11" d="M247.52,1210.93c-3.75-13.07-14.56-41.5-48.54-63.79-68.31-44.81-159.86-39.8-163.85-23.22-4.43,18.44,101,57.72,108.9,60.63A517.16,517.16,0,0,0,247.52,1210.93Z"/><path class="cls-22" d="M247.52,1210.93c-3.75-13.07-14.56-41.5-48.54-63.79-68.32-44.82-159.86-39.79-163.85-23.22-4.36,18.14,97.7,56.47,107.68,60.18A517,517,0,0,0,247.52,1210.93Z"/><path class="cls-14" d="M271.65,948.72c7.2-11.51,23.71-41.7,15-74.28-16-59.65-106-87.91-121.72-71.72a7.2,7.2,0,0,0-.6.69c-10.62,13.79,27.14,58.11,51.44,86.64A736,736,0,0,0,271.65,948.72Z"/><g class="cls-23"><path class="cls-2" d="M310.17,994.66a160,160,0,0,1,17.76-22.09c.8-.88,1.65-1.71,2.49-2.54l2.53-2.5c.83-.84,1.72-1.63,2.59-2.44l2.62-2.41q5.31-4.75,10.95-9.1c.95-.73,1.86-1.49,2.82-2.18l2.89-2.1,2.89-2.08c1-.7,2-1.32,3-2,2-1.3,4-2.64,6-3.89l6.1-3.69c.51-.3,1-.62,1.53-.91l1.57-.86,3.13-1.7,3.14-1.71c.51-.29,1-.56,1.58-.81l1.6-.79,6.41-3.13c2.15-1,4.34-1.92,6.51-2.89a265,265,0,0,1,54.33-16.76l3.49-.68c1.16-.22,2.33-.4,3.5-.61l3.5-.6c1.16-.2,2.34-.34,3.51-.52l3.52-.49c1.17-.16,2.35-.29,3.52-.43l3.52-.42,3.53-.35q7.07-.66,14.15-1c4.72-.19,9.44-.29,14.15-.21a414.23,414.23,0,0,0-55.57,9.09l-3.41.82-3.39.89-3.4.87-3.38.95c-2.25.63-4.51,1.24-6.73,2l-3.35,1c-1.12.34-2.23.69-3.33,1.08l-6.64,2.24-6.58,2.4c-2.19.81-4.34,1.71-6.52,2.56s-4.3,1.79-6.44,2.72-4.29,1.83-6.41,2.81l-6.31,3-1.57.76c-.53.24-1.06.5-1.57.78l-3.09,1.63-3.1,1.63-1.55.81-1.52.86a251.55,251.55,0,0,0-23.65,14.94A220,220,0,0,0,310.17,994.66Z"/></g><g class="cls-23"><path class="cls-2" d="M85.05,964.69a261.4,261.4,0,0,1,53.47,11.12,245.84,245.84,0,0,1,25.68,9.67c2.09.93,4.2,1.83,6.26,2.82l6.17,3.05c2.07,1,4.05,2.15,6.07,3.23l3,1.66,1.51.82,1.47.89,5.88,3.58,1.46.9,1.43,1,2.86,1.92c3.83,2.53,7.52,5.27,11.17,8.05l5.35,4.33,5.2,4.51c1.71,1.53,3.36,3.12,5,4.69s3.22,3.26,4.84,4.89,3.1,3.38,4.66,5.06,3,3.48,4.44,5.25c2.84,3.6,5.63,7.23,8.18,11s5,7.7,7.14,11.7c1.1,2,2.13,4,3.14,6.07l1.44,3.1,1.35,3.13q-3.34-5.94-7.11-11.59l-.94-1.41-1-1.39c-.65-.92-1.27-1.86-1.95-2.77-1.34-1.82-2.66-3.64-4.08-5.4a188.67,188.67,0,0,0-18.06-20,210.4,210.4,0,0,0-20.54-17.41l-5.46-4-1.36-1-1.41-.93-2.81-1.85-2.8-1.87-1.4-.93-1.44-.87-5.77-3.49c-7.77-4.5-15.7-8.76-23.9-12.48l-3.05-1.44-3.1-1.34c-2.08-.88-4.13-1.82-6.22-2.65l-6.29-2.48c-2.09-.84-4.22-1.58-6.33-2.38s-4.25-1.52-6.39-2.24-4.27-1.45-6.43-2.12c-4.29-1.41-8.64-2.68-13-3.9C102.76,968.73,93.94,966.65,85.05,964.69Z"/></g><g class="cls-23"><path class="cls-2" d="M46,1124.94a223.33,223.33,0,0,1,54.57-1.74l6.82.71c.57.06,1.14.11,1.71.19l1.7.25,3.39.51,3.4.5c1.13.18,2.25.41,3.38.62l6.75,1.28,6.7,1.58c1.11.28,2.24.5,3.34.82l3.31.95,3.3,1,1.66.48c.55.15,1.1.32,1.64.52l6.52,2.22c1.08.39,2.18.72,3.24,1.16l3.19,1.28c2.13.87,4.27,1.71,6.39,2.59,4.15,2,8.37,3.79,12.39,6l3,1.62c1,.53,2,1.15,3,1.73l3,1.75c1,.59,2,1.16,2.93,1.81,1.92,1.26,3.85,2.51,5.76,3.79l5.55,4.07a144.45,144.45,0,0,1,20.21,18.62c1.5,1.73,3,3.44,4.42,5.25s2.81,3.6,4.16,5.45,2.6,3.75,3.8,5.69,2.35,3.9,3.42,5.9q-3.91-5.58-8.31-10.74c-3-3.42-6-6.73-9.26-9.86-.78-.81-1.62-1.56-2.44-2.33l-2.46-2.3c-1.71-1.47-3.4-3-5.13-4.39s-3.49-2.82-5.27-4.18-3.61-2.68-5.44-4a182.22,182.22,0,0,0-23.1-13.72c-4-2.09-8.1-3.85-12.17-5.71l-6.25-2.49-3.12-1.25c-1-.42-2.12-.73-3.18-1.11l-6.35-2.2c-2.13-.71-4.3-1.29-6.45-1.94l-3.22-1c-1.08-.33-2.18-.56-3.26-.85l-6.53-1.66c-8.76-2-17.62-3.58-26.55-4.8A315.48,315.48,0,0,0,46,1124.94Z"/></g><g class="cls-23"><path class="cls-2" d="M267.62,1149.36a214,214,0,0,1,41.93-36.55,218.24,218.24,0,0,1,24.18-14.08l3.12-1.58c1-.54,2.12-1,3.18-1.47,2.13-1,4.25-2,6.39-2.88l6.49-2.63,1.63-.66c.54-.21,1.1-.4,1.65-.6l3.29-1.18c4.38-1.63,8.87-3,13.33-4.34l6.77-1.82c1.12-.32,2.26-.56,3.4-.83l3.41-.78c2.28-.55,4.58-1,6.87-1.39l3.44-.66,3.46-.55,3.45-.54c1.15-.19,2.31-.31,3.47-.46,2.32-.27,4.63-.58,7-.75s4.64-.45,7-.56,4.64-.31,7-.33,4.65-.13,7-.1h3.49c1.16,0,2.32,0,3.49.09s2.32.07,3.48.14l3.48.2c1.16.06,2.32.15,3.47.25l3.47.3c2.31.27,4.62.48,6.92.81s4.59.66,6.87,1q-6.94-.36-13.86-.48c-4.62,0-9.23,0-13.83.17l-3.45.12-3.45.2c-2.3.1-4.59.31-6.88.5-4.58.39-9.15.85-13.69,1.49-2.28.26-4.54.67-6.81,1-1.13.2-2.27.33-3.39.55l-3.38.62-3.38.62-3.36.73c-2.24.5-4.49,1-6.7,1.54a245.43,245.43,0,0,0-26.31,7.86l-3.23,1.15c-.54.19-1.09.37-1.62.58l-1.59.64-6.38,2.54c-2.11.88-4.2,1.83-6.3,2.74s-4.16,1.91-6.23,2.89a255.17,255.17,0,0,0-24.16,13.12A292,292,0,0,0,267.62,1149.36Z"/></g><g class="cls-23"><path class="cls-2" d="M170.24,804.35a170.93,170.93,0,0,1,21,7.48q5.13,2.22,10.14,4.75c3.34,1.69,6.6,3.53,9.82,5.44a139.69,139.69,0,0,1,34.61,28.68c2.48,2.85,4.77,5.86,7,8.92,1.06,1.57,2.15,3.11,3.12,4.73l1.5,2.41.74,1.21.68,1.24A103.62,103.62,0,0,1,270.52,901l.49,2.78.39,2.79c.28,1.86.42,3.73.59,5.6a99.18,99.18,0,0,1-.86,22.33,129.74,129.74,0,0,0-1.46-22.07c-.3-1.81-.56-3.62-1-5.41l-.56-2.69-.67-2.66c-.89-3.54-2-7-3.18-10.46A114.43,114.43,0,0,0,255,871.47l-.68-1.18-.74-1.15-1.47-2.29c-1-1.55-2-3-3.07-4.5-2.15-2.93-4.36-5.82-6.76-8.56a160.56,160.56,0,0,0-33-28.65A250.36,250.36,0,0,0,170.24,804.35Z"/></g><path class="cls-13" d="M230.28,1245.77H141.62l.54,3.67.36,2.43q1.38,9.44,2.78,18.88c.12.8.24,1.6.35,2.4l2.71,18.33c.12.81.23,1.61.35,2.41.26,1.78.53,3.55.79,5.33l.36,2.45q.87,5.94,1.75,11.89L152,1316q.65,4.3,1.27,8.61l.36,2.4,1.74,11.82c.12.83.24,1.65.37,2.48q1.54,10.55,3.11,21.11l.36,2.45,3.63,24.61c.12.8.23,1.59.35,2.39.29,1.94.57,3.87.86,5.8l.36,2.45q2.56,17.42,5.14,34.84c.12.81.24,1.62.35,2.43L172,1452l.36,2.48q1.06,7.15,2.11,14.32H322.3c0-.25.07-.5.11-.75.17-1.16.33-2.32.5-3.47q1.54-10.62,3.08-21.23l.36-2.55q1.36-9.39,2.72-18.77c.12-.8.23-1.6.35-2.4q1-6.72,1.94-13.42c.12-.83.24-1.67.37-2.5.31-2.18.63-4.36.94-6.55l.36-2.44,3-20.56.36-2.42L341.1,1339c.12-.82.23-1.64.35-2.46q1.59-10.92,3.16-21.83l.36-2.46q1.32-9.07,2.63-18.14c.24-1.65.48-3.29.71-4.94l2.46-17,.36-2.48q.71-4.85,1.4-9.69c.13-.85.25-1.7.37-2.54.5-3.41,1-6.83,1.48-10.24.07-.49.15-1,.22-1.46Z"/><path class="cls-12" d="M230.28,1245.77H141.62l.54,3.67.36,2.43q1.38,9.44,2.78,18.88c.12.8.24,1.6.35,2.4l2.71,18.33c.12.81.23,1.61.35,2.41.26,1.78.53,3.55.79,5.33l.36,2.45q.87,5.94,1.75,11.89L152,1316q.65,4.3,1.27,8.61l.36,2.4,1.74,11.82c.12.83.24,1.65.37,2.48q1.54,10.55,3.11,21.11l.36,2.45,3.63,24.61c.12.8.23,1.59.35,2.39.29,1.94.57,3.87.86,5.8l.36,2.45q2.56,17.42,5.14,34.84c.12.81.24,1.62.35,2.43L172,1452l.36,2.48q1.06,7.15,2.11,14.32H322.3c0-.25.07-.5.11-.75.17-1.16.33-2.32.5-3.47q1.54-10.62,3.08-21.23l.36-2.55q1.36-9.39,2.72-18.77c.12-.8.23-1.6.35-2.4q1-6.72,1.94-13.42c.12-.83.24-1.67.37-2.5.31-2.18.63-4.36.94-6.55l.36-2.44,3-20.56.36-2.42L341.1,1339c.12-.82.23-1.64.35-2.46q1.59-10.92,3.16-21.83l.36-2.46q1.32-9.07,2.63-18.14c.24-1.65.48-3.29.71-4.94l2.46-17,.36-2.48q.71-4.85,1.4-9.69c.13-.85.25-1.7.37-2.54.5-3.41,1-6.83,1.48-10.24.07-.49.15-1,.22-1.46Z"/><rect class="cls-11" x="137.99" y="1244.39" width="219.41" height="34.57"/><rect class="cls-13" x="137.99" y="1244.39" width="219.41" height="34.57"/><rect class="cls-12" x="137.99" y="1244.39" width="219.41" height="34.57"/><path class="cls-24" d="M347.16,1297.09l-197.9.06q-1.35-9-2.71-18.1H349.74Z"/><path class="cls-25" d="M245.75,1244.39H176.91V1279h2.67q.28,6.27.58,12.52c0,.81.07,1.61.11,2.41.08,1.78.16,3.55.25,5.33,0,.82.07,1.63.11,2.45q.27,5.94.55,11.89c0,.81.08,1.63.11,2.44q.21,4.3.4,8.61c0,.8.08,1.6.11,2.4q.28,5.91.55,11.82c0,.83.08,1.65.11,2.48q.49,10.55,1,21.11l.12,2.45q.57,12.3,1.13,24.61l.12,2.39q.12,2.91.26,5.8l.12,2.45q.8,17.42,1.61,34.84c0,.81.07,1.62.11,2.43q.34,7.29.68,14.59c0,.82.07,1.65.11,2.48l.66,14.32h46.38c0-.25,0-.5,0-.75l.15-3.47q.48-10.62,1-21.23c0-.85.08-1.7.11-2.55q.44-9.39.86-18.77c0-.8.07-1.6.11-2.4q.3-6.72.61-13.42c0-.83.07-1.67.11-2.5l.3-6.55c0-.81.07-1.63.11-2.44l.93-20.56.11-2.42q.75-16.37,1.49-32.74c0-.82.07-1.64.11-2.46l1-21.83.12-2.46q.4-9.07.82-18.14c.07-1.65.15-3.29.22-4.94.16-3.4.31-6.79.47-10.19h2.38Z"/><rect class="cls-12" y="1468.94" width="2220.62" height="48.32"/><rect class="cls-26" y="1468.94" width="2220.62" height="48.32"/></svg>